# xmcd CD database file
#
# Track frame offsets:
#	150
#	27376
#	47974
#	81410
#	111536
#	158144
#	178931
#	206263
#
# Disc length: 3058 seconds
#
# Revision: 0
# Processed by: cddbd v1.5.1PL2 Copyright (c) Steve Scherf et al.
# Submitted via: CDex 1.51
#
DISCID=6f0bf008
DTITLE=Ron Velosky - Trio: Quartet
DYEAR=2001
DGENRE=Jazz
TTITLE0=arnigo
TTITLE1=kid stuff
TTITLE2=west coast stride
TTITLE3=eights
TTITLE4=nyc
TTITLE5=show room waltz
TTITLE6=good bye
TTITLE7=amigo (alternate)
EXTD=YEAR: 2001
EXTT0=
EXTT1=
EXTT2=
EXTT3=
EXTT4=
EXTT5=
EXTT6=
EXTT7=
PLAYORDER=
